# xmcd
#
# Track frame offsets:
#	180
#	14679
#	32697
#	51502
#	69527
#	81419
#	92692
#	107252
#	125195
#	144654
#	156315
#	173670
#	187180
#	192597
#
# Disc length: 2776 seconds
#
# Revision: 4
# Processed by: cddbd v1.5PL3 Copyright (c) Steve Scherf et al.
# Submitted via: CDex 1.50Beta5
#
DISCID=cf0ad60e
DTITLE=MICHTAM - CELEBRATE
DYEAR=1900
DGENRE=
TTITLE0=セレブレイト
TTITLE1=声を上げ
TTITLE2=イエスこそわが主
TTITLE3=我らは歌う
TTITLE4=WoWoWo イエスは主
TTITLE5=マーチング ソング
TTITLE6=ジーザス イズ アライブ
TTITLE7=主をほめよ
TTITLE8=雨を注いで
TTITLE9=主の栄光
TTITLE10=生ける水の川
TTITLE11=主の臨在
TTITLE12=ハレルヤ我が神
TTITLE13=リバイバルを
EXTD=[イエスを祝う]
EXTT0=
EXTT1=
EXTT2=
EXTT3=
EXTT4=
EXTT5=
EXTT6=
EXTT7=
EXTT8=
EXTT9=
EXTT10=
EXTT11=
EXTT12=
EXTT13=
PLAYORDER=
